<svg version="1.1" id="Layer_1" xmlns="http://www.w3.org/2000/svg" xmlns:xlink="http://www.w3.org/1999/xlink" x="0px" y="0px"
	 width="100%" viewBox="0 0 590 590" enable-background="new 0 0 590 590" xml:space="preserve">
<path fill="#FFF200" opacity="1.000000" stroke="none" 
	d="
M292.000000,591.000000 
	C194.666672,591.000000 97.833336,591.000000 1.000000,591.000000 
	C1.000000,394.333344 1.000000,197.666672 1.000000,1.000000 
	C197.666672,1.000000 394.333344,1.000000 591.000000,1.000000 
	C591.000000,197.666672 591.000000,394.333344 591.000000,591.000000 
	C491.500000,591.000000 392.000000,591.000000 292.000000,591.000000 
M85.539795,243.702667 
	C85.539795,243.702667 85.499802,243.635590 86.257866,243.789047 
	C91.117287,241.298813 95.976707,238.808578 101.460350,235.840561 
	C102.575134,235.535019 103.689926,235.229477 106.083733,234.573380 
	C102.531410,239.069870 99.867050,242.442383 96.571335,246.122269 
	C92.375290,250.399918 88.179245,254.677582 83.340248,259.180023 
	C77.580742,263.778839 71.821228,268.377655 65.453552,273.283600 
	C62.398525,275.584045 59.269249,277.793213 56.304550,280.204712 
	C50.808544,284.675140 48.587780,293.296875 51.041451,300.680054 
	C52.248444,300.158783 53.500687,299.760193 54.610859,299.116547 
	C65.692635,292.691772 76.700912,286.138641 87.833046,279.802917 
	C95.605782,275.379120 103.539024,271.237366 111.045776,267.593658 
	C107.059021,272.050323 103.072266,276.507019 98.505676,281.318848 
	C95.324753,284.838379 92.143829,288.357880 88.294891,292.047546 
	C79.519257,298.993378 70.743622,305.939240 61.301548,313.077789 
	C58.545296,315.158081 55.737648,317.175385 53.063564,319.356445 
	C52.242157,320.026398 51.149906,321.238953 51.269146,322.041473 
	C51.905296,326.322937 52.886219,330.553162 53.964191,335.867493 
	C58.351547,333.196503 61.680668,331.169769 65.727432,329.052216 
	C75.643875,323.316559 85.560318,317.580902 96.033752,311.602570 
	C99.403038,309.408325 102.772324,307.214050 106.852905,304.988708 
	C111.096260,302.664673 115.339607,300.340637 119.582954,298.016602 
	C119.815331,298.271759 120.047707,298.526947 120.280083,298.782135 
	C116.493950,303.181427 112.707825,307.580719 108.366386,312.340240 
	C105.300522,315.494232 102.234657,318.648193 98.686707,322.333405 
	C89.099945,329.871155 79.513184,337.408875 69.323204,345.248627 
	C66.927399,347.028137 64.348083,348.618103 62.222176,350.676361 
	C61.316437,351.553284 60.632561,353.738464 61.097073,354.762451 
	C62.984261,358.922638 65.356010,362.862976 67.619720,367.013916 
	C69.284996,366.244202 70.369408,365.845184 71.353226,365.273193 
	C90.448471,354.171082 109.502098,342.996765 128.657211,331.999146 
	C130.942169,330.687256 133.766891,330.315552 136.017807,330.089813 
	C132.466400,334.075897 128.915009,338.061951 124.907997,342.438324 
	C122.002457,345.453186 119.096916,348.468048 115.665520,351.993683 
	C106.372025,359.306946 97.078537,366.620209 87.198265,374.246918 
	C85.306351,375.604736 83.454384,377.022980 81.513268,378.306396 
	C78.517128,380.287354 78.659721,382.145233 81.057159,384.719177 
	C88.588249,392.804749 88.512772,392.880341 98.195152,387.854645 
	C99.072853,387.399048 99.906509,386.858582 101.375847,385.940125 
	C110.971924,380.288177 120.567993,374.636230 130.783676,368.717743 
	C134.462143,366.639526 138.140625,364.561310 142.448486,362.075348 
	C146.861984,359.610138 151.275482,357.144928 156.307816,355.200623 
	C156.527832,355.356476 156.747864,355.512360 156.683212,356.296509 
	C153.337997,359.905579 149.992798,363.514648 146.190598,367.548248 
	C143.659271,370.789978 141.127960,374.031708 137.967651,377.283112 
	C130.130157,383.177185 122.283051,389.058685 114.483292,395.002319 
	C114.090469,395.301636 114.106895,396.138031 113.206001,396.784943 
	C110.058189,398.956512 106.910378,401.128052 102.755974,403.993988 
	C107.306671,406.619110 110.632362,408.389862 113.800766,410.407562 
	C116.855301,412.352783 119.559677,412.006775 122.591888,410.223206 
	C140.028336,399.967133 157.505417,389.778931 175.044754,379.700012 
	C178.275208,377.843628 181.854446,376.594208 185.035294,375.718964 
	C181.091171,380.121674 177.147064,384.524384 172.614639,389.285675 
	C170.028854,392.349670 167.443069,395.413635 164.164032,398.654175 
	C159.401978,402.154510 154.639923,405.654846 149.307571,409.445587 
	C145.424454,412.683746 141.541351,415.921875 137.280197,419.475281 
	C147.763275,423.076263 157.381241,425.343506 166.594055,417.799744 
	C169.383392,415.515686 172.808350,414.007874 176.602982,411.893219 
	C178.780579,410.586639 180.958176,409.280060 183.764404,407.722595 
	C188.551712,404.784943 193.339020,401.847290 198.806229,398.754211 
	C201.628281,397.200226 204.450333,395.646240 207.272385,394.092285 
	C199.740860,392.819946 199.272095,387.685211 198.951233,382.087921 
	C198.659225,376.993896 197.750702,371.935211 197.110153,365.953766 
	C196.477402,356.521606 195.844650,347.089447 195.862411,337.890564 
	C200.010254,340.413635 204.158112,342.936707 208.768555,345.850708 
	C213.525696,347.893188 218.282837,349.935669 223.617783,352.380219 
	C229.695526,354.237549 235.773285,356.094849 242.446564,358.453217 
	C246.274780,359.011383 250.102982,359.569550 254.556641,360.592773 
	C257.398468,360.384247 260.240265,360.175690 263.816528,359.960571 
	C265.496887,359.313354 267.304321,358.881653 268.834229,357.979370 
	C273.796204,355.053070 274.190918,350.942261 269.914368,346.155334 
	C264.622864,342.475525 259.331329,338.795715 253.423080,334.749420 
	C248.291428,332.275055 243.159775,329.800690 237.325073,327.123840 
	C220.901321,318.784241 206.678848,308.237244 200.066483,289.192322 
	C199.303772,285.119904 198.541061,281.047455 197.568619,276.164825 
	C196.003662,266.531342 198.140213,257.334930 201.208496,247.561508 
	C202.925873,243.970154 204.643250,240.378799 206.939484,236.583832 
	C213.231079,229.421112 220.275162,223.243103 229.129364,219.365601 
	C231.062042,218.519211 232.863068,217.372177 235.595551,216.267517 
	C239.902695,215.338287 244.209824,214.409073 248.516968,213.479843 
	C248.670975,213.036041 248.824997,212.592239 248.979019,212.148438 
	C242.502960,207.474518 236.026901,202.800583 229.023697,197.746185 
	C231.173843,196.377899 233.088257,195.197845 234.963440,193.958435 
	C239.020203,191.277115 241.184799,187.534622 240.920959,182.622513 
	C240.680618,178.147995 239.079910,177.302979 235.259598,179.526718 
	C230.375717,182.369553 225.389252,185.067307 220.704041,188.210678 
	C216.762405,190.855179 213.184662,191.080505 208.610626,189.537476 
	C190.735992,183.507492 172.290985,181.280670 153.598328,184.250504 
	C115.585312,190.289902 86.304077,209.786652 66.348595,242.773071 
	C63.149021,248.061981 61.417309,254.238907 58.803219,260.065948 
	C58.803219,260.065948 58.773972,260.324402 58.773972,260.324402 
	C58.773972,260.324402 58.995941,259.994354 59.688114,259.876892 
	C65.424049,256.606201 71.159988,253.335480 77.549110,249.781952 
	C80.101028,248.176971 82.652939,246.571976 85.579697,244.648926 
	C85.788490,244.343719 85.801125,244.030518 85.539795,243.702667 
M235.012192,314.484833 
	C242.402512,318.297028 250.008911,321.749176 257.123962,326.019989 
	C264.631042,330.526184 272.396667,335.035828 278.727295,340.957336 
	C286.538422,348.263672 284.637604,358.800232 275.696808,364.799530 
	C269.742035,368.795258 263.013153,369.598389 256.079498,369.315704 
	C240.166046,368.666962 225.360870,363.887573 211.098755,357.117828 
	C209.576294,356.395142 208.004852,355.775635 206.122223,354.964417 
	C206.864212,363.742493 207.400589,371.884918 208.368729,379.975616 
	C208.554947,381.531860 210.124359,383.560272 211.580795,384.231567 
	C235.262848,395.147156 259.893188,399.042725 285.530609,392.928192 
	C305.125397,388.254791 320.532562,377.973663 326.901886,357.840118 
	C334.514771,333.775513 325.264435,311.213531 302.816559,298.170532 
	C294.623352,293.410034 285.827820,289.668976 277.736298,284.755859 
	C270.817596,280.554901 263.986908,275.908844 258.082123,270.421417 
	C251.997147,264.766571 252.834961,256.963654 259.421448,251.797867 
	C262.320648,249.523987 266.023987,247.741562 269.623718,246.992584 
	C281.455414,244.530899 292.749146,247.311005 303.722626,251.715668 
	C306.432739,252.803482 309.080811,254.045776 312.323608,255.464798 
	C311.799652,245.520020 311.312592,236.276077 310.814453,226.821396 
	C291.723114,221.979263 272.723450,219.446503 253.610779,222.841751 
	C244.958405,224.378799 236.042542,227.408386 228.546967,231.921310 
	C206.403275,245.253494 200.265411,273.719635 214.996338,295.002930 
	C220.068298,302.330933 227.857422,307.778259 235.012192,314.484833 
M364.108459,358.497253 
	C364.014557,370.749207 365.273193,383.327942 354.723572,393.507019 
	C377.009155,393.507019 398.316010,393.507019 420.626068,393.507019 
	C411.035797,384.165039 411.173981,372.763580 411.168762,361.417633 
	C411.153137,327.444092 411.163116,293.470581 411.163055,259.497040 
	C411.163055,257.712341 411.163055,255.927673 411.163055,253.939301 
	C423.945984,252.569611 435.837860,252.553146 445.944916,262.086853 
	C448.830261,249.255692 451.576141,237.044708 454.428284,224.361221 
	C413.763245,224.361221 373.976898,224.347733 334.190796,224.436417 
	C333.160889,224.438705 331.435181,225.366531 331.209900,226.186005 
	C327.965240,237.988358 324.922546,249.846222 321.729858,262.079895 
	C342.807678,253.762207 354.048309,251.678879 364.108459,254.268509 
	C364.108459,288.608337 364.108459,323.053253 364.108459,358.497253 
M474.143311,354.499756 
	C474.143341,356.997864 474.144440,359.495941 474.143127,361.994049 
	C474.137360,373.031891 474.474213,384.164307 464.727661,393.052307 
	C487.044495,393.052307 508.424866,393.052307 530.761169,393.052307 
	C521.469299,384.509003 521.242920,373.765839 521.216125,363.083954 
	C521.125549,326.944946 521.120728,290.805389 521.220093,254.666428 
	C521.249390,244.009857 521.240356,233.212891 530.971069,224.644928 
	C508.432251,224.644928 487.112122,224.644928 464.572723,224.644928 
	C474.504944,233.288406 474.141632,244.233231 474.142456,255.074524 
	C474.144958,287.882965 474.143341,320.691376 474.143311,354.499756 
M211.461014,404.964417 
	C204.163422,410.600037 196.865829,416.235687 189.568237,421.871338 
	C207.403137,419.901672 223.156662,413.320343 238.932739,402.829529 
	C235.407257,401.922760 233.080063,401.675568 231.069855,400.744232 
	C223.728973,397.343140 217.398773,398.367584 211.461014,404.964417 
z"/>
<path fill="#0273BB" opacity="1.000000" stroke="none" 
	d="
M234.708740,314.284790 
	C227.857422,307.778259 220.068298,302.330933 214.996338,295.002930 
	C200.265411,273.719635 206.403275,245.253494 228.546967,231.921310 
	C236.042542,227.408386 244.958405,224.378799 253.610779,222.841751 
	C272.723450,219.446503 291.723114,221.979263 310.814453,226.821396 
	C311.312592,236.276077 311.799652,245.520020 312.323608,255.464798 
	C309.080811,254.045776 306.432739,252.803482 303.722626,251.715668 
	C292.749146,247.311005 281.455414,244.530899 269.623718,246.992584 
	C266.023987,247.741562 262.320648,249.523987 259.421448,251.797867 
	C252.834961,256.963654 251.997147,264.766571 258.082123,270.421417 
	C263.986908,275.908844 270.817596,280.554901 277.736298,284.755859 
	C285.827820,289.668976 294.623352,293.410034 302.816559,298.170532 
	C325.264435,311.213531 334.514771,333.775513 326.901886,357.840118 
	C320.532562,377.973663 305.125397,388.254791 285.530609,392.928192 
	C259.893188,399.042725 235.262848,395.147156 211.580795,384.231567 
	C210.124359,383.560272 208.554947,381.531860 208.368729,379.975616 
	C207.400589,371.884918 206.864212,363.742493 206.122223,354.964417 
	C208.004852,355.775635 209.576294,356.395142 211.098755,357.117828 
	C225.360870,363.887573 240.166046,368.666962 256.079498,369.315704 
	C263.013153,369.598389 269.742035,368.795258 275.696808,364.799530 
	C284.637604,358.800232 286.538422,348.263672 278.727295,340.957336 
	C272.396667,335.035828 264.631042,330.526184 257.123962,326.019989 
	C250.008911,321.749176 242.402512,318.297028 234.708740,314.284790 
z"/>
<path fill="#F9AF19" opacity="1.000000" stroke="none" 
	d="
M185.272705,375.064636 
	C181.854446,376.594208 178.275208,377.843628 175.044754,379.700012 
	C157.505417,389.778931 140.028336,399.967133 122.591888,410.223206 
	C119.559677,412.006775 116.855301,412.352783 113.800766,410.407562 
	C110.632362,408.389862 107.306671,406.619110 102.755974,403.993988 
	C106.910378,401.128052 110.058189,398.956512 113.925278,396.829712 
	C116.292183,397.253326 118.403931,398.481720 119.513420,397.875610 
	C127.823364,393.335632 135.935425,388.433380 144.231323,383.573120 
	C142.086472,381.175140 140.341568,379.224304 138.596649,377.273438 
	C141.127960,374.031708 143.659271,370.789978 146.491241,367.674988 
	C149.238586,370.263458 151.582886,372.843079 154.196091,375.113159 
	C154.953705,375.771301 156.800308,376.098633 157.609131,375.636017 
	C168.979095,369.132843 180.255829,362.466644 191.755966,355.722290 
	C182.812378,340.458557 174.114578,325.614288 165.127701,310.276642 
	C155.939285,316.067078 147.263809,321.534271 138.283630,327.129822 
	C137.657959,327.547089 137.336960,327.835999 137.074219,328.047150 
	C137.132477,327.969360 137.288727,328.084961 137.017120,328.208344 
	C136.541992,328.662842 136.338486,328.993927 136.212006,329.342133 
	C136.289032,329.359222 136.341431,329.508057 136.341431,329.508057 
	C133.766891,330.315552 130.942169,330.687256 128.657211,331.999146 
	C109.502098,342.996765 90.448471,354.171082 71.353226,365.273193 
	C70.369408,365.845184 69.284996,366.244202 67.619720,367.013916 
	C65.356010,362.862976 62.984261,358.922638 61.097073,354.762451 
	C60.632561,353.738464 61.316437,351.553284 62.222176,350.676361 
	C64.348083,348.618103 66.927399,347.028137 69.785553,345.423950 
	C71.057556,347.148346 71.867195,348.697388 72.813896,350.508667 
	C83.753975,344.091797 94.288849,337.912598 105.223610,331.498871 
	C102.971634,327.892365 101.070213,324.847260 99.168800,321.802185 
	C102.234657,318.648193 105.300522,315.494232 108.830597,312.462463 
	C111.291283,316.757416 113.287758,320.930145 115.479820,325.511658 
	C130.232895,316.866852 144.635696,308.427277 159.118103,299.941040 
	C149.947998,284.293762 141.087784,269.175262 131.985931,253.644470 
	C124.723625,258.345459 118.062103,262.657562 111.400574,266.969635 
	C103.539024,271.237366 95.605782,275.379120 87.833046,279.802917 
	C76.700912,286.138641 65.692635,292.691772 54.610859,299.116547 
	C53.500687,299.760193 52.248444,300.158783 51.041451,300.680054 
	C48.587780,293.296875 50.808544,284.675140 56.304550,280.204712 
	C59.269249,277.793213 62.398525,275.584045 65.771729,273.497559 
	C65.772682,275.275360 65.455452,276.839172 65.015572,279.007629 
	C69.831078,276.206573 74.082520,273.741791 78.326019,271.263428 
	C85.171402,267.265381 85.169197,267.261597 83.983200,258.955231 
	C88.179245,254.677582 92.375290,250.399918 96.956711,246.451599 
	C97.342094,251.034302 97.342094,255.287704 97.342094,260.109436 
	C106.934143,254.516922 116.318451,249.045517 126.015686,243.391678 
	C120.800278,234.485596 115.747162,225.856659 109.862724,215.808121 
	C106.475487,221.927948 103.596802,226.873230 101.022186,231.972061 
	C100.426666,233.151428 100.870544,234.855652 100.836121,236.318359 
	C95.976707,238.808578 91.117287,241.298813 85.831604,243.303650 
	C85.642517,240.990295 85.879700,239.162369 86.116882,237.334427 
	C85.588333,237.135056 85.059776,236.935684 84.531227,236.736313 
	C81.986122,241.179123 79.441017,245.621948 76.895920,250.064774 
	C71.159988,253.335480 65.424049,256.606201 59.344131,259.938446 
	C59.000149,260.000000 59.007034,260.005310 59.007034,260.005310 
	C61.417309,254.238907 63.149021,248.061981 66.348595,242.773071 
	C86.304077,209.786652 115.585312,190.289902 153.598328,184.250504 
	C172.290985,181.280670 190.735992,183.507492 208.610626,189.537476 
	C213.184662,191.080505 216.762405,190.855179 220.704041,188.210678 
	C225.389252,185.067307 230.375717,182.369553 235.259598,179.526718 
	C239.079910,177.302979 240.680618,178.147995 240.920959,182.622513 
	C241.184799,187.534622 239.020203,191.277115 234.963440,193.958435 
	C233.088257,195.197845 231.173843,196.377899 229.023697,197.746185 
	C236.026901,202.800583 242.502960,207.474518 248.979019,212.148438 
	C248.824997,212.592239 248.670975,213.036041 248.516968,213.479843 
	C244.209824,214.409073 239.902695,215.338287 234.825989,216.194916 
	C228.799362,212.977692 223.587677,209.752289 218.248871,206.753128 
	C217.110886,206.113846 215.154846,205.658890 214.179443,206.202454 
	C206.107742,210.700668 198.178116,215.453827 190.407730,220.011215 
	C195.889648,225.776062 201.125137,231.281754 206.360626,236.787445 
	C204.643250,240.378799 202.925873,243.970154 200.746109,247.718842 
	C193.190735,240.723740 186.097748,233.571320 179.130142,226.545349 
	C166.368851,234.010727 154.653152,240.864456 142.782333,247.808914 
	C151.872391,263.325714 160.674438,278.350861 169.774963,293.885529 
	C179.344833,288.106537 188.561600,282.540802 197.778351,276.975037 
	C198.541061,281.047455 199.303772,285.119904 199.809143,289.814056 
	C191.735260,295.055511 183.918716,299.675201 175.978592,304.367981 
	C182.487717,315.634064 188.849808,326.645660 195.211899,337.657288 
	C195.844650,347.089447 196.477402,356.521606 196.778259,366.539459 
	C193.092178,369.429169 189.737976,371.733185 186.111618,374.158447 
	C185.561081,374.551270 185.282700,374.822845 185.065094,375.030029 
	C185.125885,374.965637 185.272705,375.064636 185.272705,375.064636 
M133.512024,208.130402 
	C129.442444,208.667770 125.372856,209.205154 120.574966,209.838684 
	C126.186874,219.428268 131.333038,228.221985 136.588394,237.202271 
	C142.066910,234.004379 147.071487,231.085922 152.073318,228.162735 
	C156.973663,225.298843 161.871185,222.430145 167.347580,219.225571 
	C156.635147,212.876648 146.166336,208.622284 133.512024,208.130402 
M194.144989,203.637787 
	C196.002060,202.492233 197.859116,201.346695 200.251740,199.870773 
	C183.075592,194.761581 159.889343,193.994705 150.284943,197.905045 
	C155.674072,200.197357 161.208237,202.399933 166.607574,204.894363 
	C171.201263,207.016571 175.714676,211.417267 180.125839,211.246735 
	C184.673508,211.070938 189.054718,206.589264 194.144989,203.637787 
z"/>
<path fill="#0373BA" opacity="1.000000" stroke="none" 
	d="
M364.108459,357.997742 
	C364.108459,323.053253 364.108459,288.608337 364.108459,254.268509 
	C354.048309,251.678879 342.807678,253.762207 321.729858,262.079895 
	C324.922546,249.846222 327.965240,237.988358 331.209900,226.186005 
	C331.435181,225.366531 333.160889,224.438705 334.190796,224.436417 
	C373.976898,224.347733 413.763245,224.361221 454.428284,224.361221 
	C451.576141,237.044708 448.830261,249.255692 445.944916,262.086853 
	C435.837860,252.553146 423.945984,252.569611 411.163055,253.939301 
	C411.163055,255.927673 411.163055,257.712341 411.163055,259.497040 
	C411.163116,293.470581 411.153137,327.444092 411.168762,361.417633 
	C411.173981,372.763580 411.035797,384.165039 420.626068,393.507019 
	C398.316010,393.507019 377.009155,393.507019 354.723572,393.507019 
	C365.273193,383.327942 364.014557,370.749207 364.108459,357.997742 
z"/>
<path fill="#0273BB" opacity="1.000000" stroke="none" 
	d="
M474.143311,353.999786 
	C474.143341,320.691376 474.144958,287.882965 474.142456,255.074524 
	C474.141632,244.233231 474.504944,233.288406 464.572723,224.644928 
	C487.112122,224.644928 508.432251,224.644928 530.971069,224.644928 
	C521.240356,233.212891 521.249390,244.009857 521.220093,254.666428 
	C521.120728,290.805389 521.125549,326.944946 521.216125,363.083954 
	C521.242920,373.765839 521.469299,384.509003 530.761169,393.052307 
	C508.424866,393.052307 487.044495,393.052307 464.727661,393.052307 
	C474.474213,384.164307 474.137360,373.031891 474.143127,361.994049 
	C474.144440,359.495941 474.143341,356.997864 474.143311,353.999786 
z"/>
<path fill="#0473BB" opacity="1.000000" stroke="none" 
	d="
M111.223175,267.281647 
	C118.062103,262.657562 124.723625,258.345459 131.985931,253.644470 
	C141.087784,269.175262 149.947998,284.293762 159.118103,299.941040 
	C144.635696,308.427277 130.232895,316.866852 115.479820,325.511658 
	C113.287758,320.930145 111.291283,316.757416 109.108246,312.282349 
	C112.707825,307.580719 116.493950,303.181427 120.280083,298.782135 
	C120.047707,298.526947 119.815331,298.271759 119.582954,298.016602 
	C115.339607,300.340637 111.096260,302.664673 106.439705,304.620209 
	C103.712837,296.489044 101.399170,288.726349 99.085503,280.963684 
	C103.072266,276.507019 107.059021,272.050323 111.223175,267.281647 
z"/>
<path fill="#0473BB" opacity="1.000000" stroke="none" 
	d="
M138.588348,327.001465 
	C147.263809,321.534271 155.939285,316.067078 165.127701,310.276642 
	C174.114578,325.614288 182.812378,340.458557 191.755966,355.722290 
	C180.255829,362.466644 168.979095,369.132843 157.609131,375.636017 
	C156.800308,376.098633 154.953705,375.771301 154.196091,375.113159 
	C151.582886,372.843079 149.238586,370.263458 146.719742,367.462708 
	C149.992798,363.514648 153.337997,359.905579 157.052429,355.870239 
	C157.676971,355.024719 157.932281,354.605408 158.479492,354.071564 
	C158.720734,353.624237 158.670074,353.291443 158.619415,352.958679 
	C158.258560,353.141632 157.897705,353.324554 157.268585,353.595001 
	C156.563202,354.014893 156.126083,354.347290 155.688965,354.679688 
	C151.275482,357.144928 146.861984,359.610138 141.836243,362.112061 
	C135.937195,355.448517 130.650391,348.748260 125.363609,342.048035 
	C128.915009,338.061951 132.466400,334.075897 136.179626,329.798950 
	C136.341431,329.508057 136.289032,329.359222 136.533478,329.284088 
	C136.948196,328.834290 137.118454,328.459625 137.288727,328.084961 
	C137.288727,328.084961 137.132477,327.969360 137.434662,328.052856 
	C138.020691,327.758057 138.304520,327.379761 138.588348,327.001465 
z"/>
<path fill="#0373BB" opacity="1.000000" stroke="none" 
	d="
M197.673492,276.569946 
	C188.561600,282.540802 179.344833,288.106537 169.774963,293.885529 
	C160.674438,278.350861 151.872391,263.325714 142.782333,247.808914 
	C154.653152,240.864456 166.368851,234.010727 179.130142,226.545349 
	C186.097748,233.571320 193.190735,240.723740 200.576630,248.042328 
	C198.140213,257.334930 196.003662,266.531342 197.673492,276.569946 
z"/>
<path fill="#0473BB" opacity="1.000000" stroke="none" 
	d="
M195.537155,337.773926 
	C188.849808,326.645660 182.487717,315.634064 175.978592,304.367981 
	C183.918716,299.675201 191.735260,295.055511 199.831604,290.224792 
	C206.678848,308.237244 220.901321,318.784241 237.675537,327.558472 
	C228.119324,333.815338 218.212646,339.637573 208.305969,345.459778 
	C204.158112,342.936707 200.010254,340.413635 195.537155,337.773926 
z"/>
<path fill="#0573BA" opacity="1.000000" stroke="none" 
	d="
M130.164062,368.984283 
	C120.567993,374.636230 110.971924,380.288177 100.763367,386.016876 
	C96.028946,382.040222 91.906990,377.986816 87.785042,373.933441 
	C97.078537,366.620209 106.372025,359.306946 116.239594,351.891296 
	C121.263802,357.520691 125.713928,363.252472 130.164062,368.984283 
z"/>
<path fill="#F8AF1A" opacity="1.000000" stroke="none" 
	d="
M208.537262,345.655273 
	C218.212646,339.637573 228.119324,333.815338 238.027069,327.659729 
	C243.159775,329.800690 248.291428,332.275055 253.642578,335.385010 
	C253.885132,344.056274 253.908173,352.091980 253.931198,360.127686 
	C250.102982,359.569550 246.274780,359.011383 242.129761,357.732849 
	C241.812973,351.830048 241.812973,346.647644 241.812973,340.470276 
	C234.832504,344.749298 228.936234,348.363708 223.039978,351.978149 
	C218.282837,349.935669 213.525696,347.893188 208.537262,345.655273 
z"/>
<path fill="#0673BA" opacity="1.000000" stroke="none" 
	d="
M206.650055,236.685638 
	C201.125137,231.281754 195.889648,225.776062 190.407730,220.011215 
	C198.178116,215.453827 206.107742,210.700668 214.179443,206.202454 
	C215.154846,205.658890 217.110886,206.113846 218.248871,206.753128 
	C223.587677,209.752289 228.799362,212.977692 234.390579,216.242981 
	C232.863068,217.372177 231.062042,218.519211 229.129364,219.365601 
	C220.275162,223.243103 213.231079,229.421112 206.650055,236.685638 
z"/>
<path fill="#0974B8" opacity="1.000000" stroke="none" 
	d="
M101.148239,236.079468 
	C100.870544,234.855652 100.426666,233.151428 101.022186,231.972061 
	C103.596802,226.873230 106.475487,221.927948 109.862724,215.808121 
	C115.747162,225.856659 120.800278,234.485596 126.015686,243.391678 
	C116.318451,249.045517 106.934143,254.516922 97.342094,260.109436 
	C97.342094,255.287704 97.342094,251.034302 97.272400,246.297913 
	C99.867050,242.442383 102.531410,239.069870 106.083733,234.573380 
	C103.689926,235.229477 102.575134,235.535019 101.148239,236.079468 
z"/>
<path fill="#0673BA" opacity="1.000000" stroke="none" 
	d="
M95.476753,311.845245 
	C85.560318,317.580902 75.643875,323.316559 65.262787,328.704651 
	C63.854752,323.199738 62.911366,318.042419 61.967979,312.885071 
	C70.743622,305.939240 79.519257,298.993378 88.766869,292.320557 
	C91.318153,299.010773 93.397453,305.428009 95.476753,311.845245 
z"/>
<path fill="#0774B9" opacity="1.000000" stroke="none" 
	d="
M186.383789,374.037201 
	C189.737976,371.733185 193.092178,369.429169 196.780167,366.993042 
	C197.750702,371.935211 198.659225,376.993896 198.951233,382.087921 
	C199.272095,387.685211 199.740860,392.819946 207.272385,394.092285 
	C204.450333,395.646240 201.628281,397.200226 198.152496,398.609924 
	C189.400162,395.286102 181.301559,392.106598 173.202972,388.927063 
	C177.147064,384.524384 181.091171,380.121674 185.153992,375.391785 
	C185.272705,375.064636 185.125885,374.965637 185.378677,374.999329 
	C185.882233,374.701111 186.133011,374.369141 186.383789,374.037201 
z"/>
<path fill="#FCB016" opacity="1.000000" stroke="none" 
	d="
M211.733429,404.733521 
	C217.398773,398.367584 223.728973,397.343140 231.069855,400.744232 
	C233.080063,401.675568 235.407257,401.922760 238.932739,402.829529 
	C223.156662,413.320343 207.403137,419.901672 189.568237,421.871338 
	C196.865829,416.235687 204.163422,410.600037 211.733429,404.733521 
z"/>
<path fill="#0974B8" opacity="1.000000" stroke="none" 
	d="
M98.927750,322.067810 
	C101.070213,324.847260 102.971634,327.892365 105.223610,331.498871 
	C94.288849,337.912598 83.753975,344.091797 72.813896,350.508667 
	C71.867195,348.697388 71.057556,347.148346 70.087158,345.272949 
	C79.513184,337.408875 89.099945,329.871155 98.927750,322.067810 
z"/>
<path fill="#F7AF1A" opacity="1.000000" stroke="none" 
	d="
M172.908813,389.106384 
	C181.301559,392.106598 189.400162,395.286102 197.812561,398.687622 
	C193.339020,401.847290 188.551712,404.784943 183.237946,407.559845 
	C176.760101,404.423920 170.808701,401.450745 164.857285,398.477600 
	C167.443069,395.413635 170.028854,392.349670 172.908813,389.106384 
z"/>
<path fill="#F7AF1A" opacity="1.000000" stroke="none" 
	d="
M130.473877,368.851013 
	C125.713928,363.252472 121.263802,357.520691 116.502525,351.635895 
	C119.096916,348.468048 122.002457,345.453186 125.135803,342.243164 
	C130.650391,348.748260 135.937195,355.448517 141.521545,362.315918 
	C138.140625,364.561310 134.462143,366.639526 130.473877,368.851013 
z"/>
<path fill="#F7AF1A" opacity="1.000000" stroke="none" 
	d="
M95.755249,311.723907 
	C93.397453,305.428009 91.318153,299.010773 89.100876,292.235474 
	C92.143829,288.357880 95.324753,284.838379 98.795593,281.141266 
	C101.399170,288.726349 103.712837,296.489044 106.084061,304.635742 
	C102.772324,307.214050 99.403038,309.408325 95.755249,311.723907 
z"/>
<path fill="#F9B018" opacity="1.000000" stroke="none" 
	d="
M175.942169,412.144531 
	C172.808350,414.007874 169.383392,415.515686 166.594055,417.799744 
	C157.381241,425.343506 147.763275,423.076263 137.280197,419.475281 
	C141.541351,415.921875 145.424454,412.683746 149.760712,409.641388 
	C158.789948,410.606293 167.366058,411.375427 175.942169,412.144531 
z"/>
<path fill="#0B75B7" opacity="1.000000" stroke="none" 
	d="
M254.243927,360.360229 
	C253.908173,352.091980 253.885132,344.056274 253.950958,335.568237 
	C259.331329,338.795715 264.622864,342.475525 269.719452,346.733276 
	C267.377075,351.529877 265.229584,355.748535 263.082092,359.967163 
	C260.240265,360.175690 257.398468,360.384247 254.243927,360.360229 
z"/>
<path fill="#0B75B7" opacity="1.000000" stroke="none" 
	d="
M176.272583,412.018890 
	C167.366058,411.375427 158.789948,410.606293 150.045853,409.496185 
	C154.639923,405.654846 159.401978,402.154510 164.510651,398.565887 
	C170.808701,401.450745 176.760101,404.423920 182.923630,407.685272 
	C180.958176,409.280060 178.780579,410.586639 176.272583,412.018890 
z"/>
<path fill="#0B75B7" opacity="1.000000" stroke="none" 
	d="
M138.282166,377.278259 
	C140.341568,379.224304 142.086472,381.175140 144.231323,383.573120 
	C135.935425,388.433380 127.823364,393.335632 119.513420,397.875610 
	C118.403931,398.481720 116.292183,397.253326 114.288666,396.799377 
	C114.106895,396.138031 114.090469,395.301636 114.483292,395.002319 
	C122.283051,389.058685 130.130157,383.177185 138.282166,377.278259 
z"/>
<path fill="#F9B018" opacity="1.000000" stroke="none" 
	d="
M87.491653,374.090179 
	C91.906990,377.986816 96.028946,382.040222 100.455750,386.225586 
	C99.906509,386.858582 99.072853,387.399048 98.195152,387.854645 
	C88.512772,392.880341 88.588249,392.804749 81.057159,384.719177 
	C78.659721,382.145233 78.517128,380.287354 81.513268,378.306396 
	C83.454384,377.022980 85.306351,375.604736 87.491653,374.090179 
z"/>
<path fill="#F9B018" opacity="1.000000" stroke="none" 
	d="
M61.634766,312.981445 
	C62.911366,318.042419 63.854752,323.199738 64.903961,328.750061 
	C61.680668,331.169769 58.351547,333.196503 53.964191,335.867493 
	C52.886219,330.553162 51.905296,326.322937 51.269146,322.041473 
	C51.149906,321.238953 52.242157,320.026398 53.063564,319.356445 
	C55.737648,317.175385 58.545296,315.158081 61.634766,312.981445 
z"/>
<path fill="#0B75B7" opacity="1.000000" stroke="none" 
	d="
M223.328873,352.179169 
	C228.936234,348.363708 234.832504,344.749298 241.812973,340.470276 
	C241.812973,346.647644 241.812973,351.830048 241.832001,357.482300 
	C235.773285,356.094849 229.695526,354.237549 223.328873,352.179169 
z"/>
<path fill="#1076B6" opacity="1.000000" stroke="none" 
	d="
M83.661728,259.067627 
	C85.169197,267.261597 85.171402,267.265381 78.326019,271.263428 
	C74.082520,273.741791 69.831078,276.206573 65.015572,279.007629 
	C65.455452,276.839172 65.772682,275.275360 66.075821,273.343994 
	C71.821228,268.377655 77.580742,263.778839 83.661728,259.067627 
z"/>
<path fill="#F7AF1A" opacity="1.000000" stroke="none" 
	d="
M263.449310,359.963867 
	C265.229584,355.748535 267.377075,351.529877 269.792175,347.062164 
	C274.190918,350.942261 273.796204,355.053070 268.834229,357.979370 
	C267.304321,358.881653 265.496887,359.313354 263.449310,359.963867 
z"/>
<path fill="#1978B2" opacity="1.000000" stroke="none" 
	d="
M77.222519,249.923370 
	C79.441017,245.621948 81.986122,241.179123 84.531227,236.736313 
	C85.059776,236.935684 85.588333,237.135056 86.116882,237.334427 
	C85.879700,239.162369 85.642517,240.990295 85.452568,243.226913 
	C85.499802,243.635590 85.539795,243.702667 85.400986,243.864380 
	C85.163132,244.334854 85.144028,244.648483 85.204857,244.966995 
	C82.652939,246.571976 80.101028,248.176971 77.222519,249.923370 
z"/>
<path fill="#F9AF19" opacity="1.000000" stroke="none" 
	d="
M85.392273,244.807953 
	C85.144028,244.648483 85.163132,244.334854 85.439880,243.867706 
	C85.801125,244.030518 85.788490,244.343719 85.392273,244.807953 
z"/>
<path fill="#F9AF19" opacity="1.000000" stroke="none" 
	d="
M58.998047,259.997192 
	C58.995941,259.994354 58.773972,260.324402 58.773972,260.324402 
	C58.773972,260.324402 58.803219,260.065948 58.905128,260.035645 
	C59.007034,260.005310 59.000149,260.000000 58.998047,259.997192 
z"/>
<path fill="#0673B9" opacity="1.000000" stroke="none" 
	d="
M133.963043,208.131927 
	C146.166336,208.622284 156.635147,212.876648 167.347580,219.225571 
	C161.871185,222.430145 156.973663,225.298843 152.073318,228.162735 
	C147.071487,231.085922 142.066910,234.004379 136.588394,237.202271 
	C131.333038,228.221985 126.186874,219.428268 120.574966,209.838684 
	C125.372856,209.205154 129.442444,208.667770 133.963043,208.131927 
z"/>
<path fill="#0974B8" opacity="1.000000" stroke="none" 
	d="
M193.826874,203.814636 
	C189.054718,206.589264 184.673508,211.070938 180.125839,211.246735 
	C175.714676,211.417267 171.201263,207.016571 166.607574,204.894363 
	C161.208237,202.399933 155.674072,200.197357 150.284943,197.905045 
	C159.889343,193.994705 183.075592,194.761581 200.251740,199.870773 
	C197.859116,201.346695 196.002060,202.492233 193.826874,203.814636 
z"/>
<path fill="#FFF200" opacity="1.000000" stroke="none" 
	d="
M186.111633,374.158447 
	C186.133011,374.369141 185.882233,374.701111 185.317902,375.063721 
	C185.282700,374.822845 185.561081,374.551270 186.111633,374.158447 
z"/>
<path fill="#FFF200" opacity="1.000000" stroke="none" 
	d="
M137.017120,328.208344 
	C137.118454,328.459625 136.948196,328.834290 136.456451,329.266998 
	C136.338486,328.993927 136.541992,328.662842 137.017120,328.208344 
z"/>
<path fill="#FFF200" opacity="1.000000" stroke="none" 
	d="
M138.283646,327.129822 
	C138.304520,327.379761 138.020691,327.758057 137.376404,328.130646 
	C137.336960,327.835999 137.657959,327.547089 138.283646,327.129822 
z"/>
<path fill="#FFF200" opacity="1.000000" stroke="none" 
	d="
M158.187592,354.186127 
	C157.932281,354.605408 157.676971,355.024719 157.194763,355.556091 
	C156.747864,355.512360 156.527832,355.356476 155.998383,354.940155 
	C156.126083,354.347290 156.563202,354.014893 157.428925,353.766907 
	C157.857513,353.851318 158.187592,354.186127 158.187592,354.186127 
z"/>
<path fill="#FFF200" opacity="1.000000" stroke="none" 
	d="
M157.697174,353.679413 
	C157.897705,353.324554 158.258560,353.141632 158.619415,352.958679 
	C158.670074,353.291443 158.720734,353.624237 158.479492,354.071564 
	C158.187592,354.186127 157.857513,353.851318 157.697174,353.679413 
z"/>
</svg>